<svg width="23" height="24" viewBox="0 0 23 24" fill="none" xmlns="http://www.w3.org/2000/svg">
<path d="M12.4345 22.94L22.3813 11.2955C22.4571 11.2061 22.4991 11.0925 22.4982 10.9732L22.4773 8.2652C22.4756 8.03877 22.1932 7.93711 22.0476 8.10969L12.8257 18.9036L12.6875 0.997349C12.6865 0.862716 12.5755 0.753488 12.4408 0.754622L10.6044 0.770076C10.4697 0.771209 10.3604 0.882291 10.3614 1.01692L10.4995 18.9201L1.1123 8.28281C0.961001 8.11272 0.683279 8.2191 0.685027 8.44553L0.706632 11.2453C0.707081 11.3034 0.728955 11.3614 0.769074 11.4039L10.9531 22.9525C11.046 23.0576 11.1605 23.1416 11.2887 23.1987C11.4169 23.2559 11.556 23.2848 11.6964 23.2836C11.8368 23.2825 11.9753 23.2512 12.1027 23.1919C12.23 23.1326 12.3431 23.0467 12.4345 22.94V22.94Z" fill="#D6E1F8"/>
</svg>
