<svg width="101" height="79" viewBox="0 0 101 79" fill="none" xmlns="http://www.w3.org/2000/svg">
<path d="M50.3077 0C22.6827 0 0.307739 17.9 0.307739 40C0.307739 57.7 14.6202 72.65 34.4952 77.95C36.9952 78.3 37.9327 77.1 37.9327 76.05C37.9327 75.1 37.8702 71.95 37.8702 68.6C25.3077 70.45 22.0577 66.15 21.0577 63.9C20.4952 62.75 18.0577 59.2 15.9327 58.25C14.1827 57.5 11.6827 55.65 15.8702 55.6C19.8077 55.55 22.6202 58.5 23.5577 59.7C28.0577 65.75 35.2452 64.05 38.1202 63C38.5577 60.4 39.8702 58.65 41.3077 57.65C30.1827 56.65 18.5577 53.2 18.5577 37.9C18.5577 33.55 20.4952 29.95 23.6827 27.15C23.1827 26.15 21.4327 22.05 24.1827 16.55C24.1827 16.55 28.3702 15.5 37.9327 20.65C41.9327 19.75 46.1827 19.3 50.4327 19.3C54.6827 19.3 58.9327 19.75 62.9327 20.65C72.4952 15.45 76.6827 16.55 76.6827 16.55C79.4327 22.05 77.6827 26.15 77.1827 27.15C80.3702 29.95 82.3077 33.5 82.3077 37.9C82.3077 53.25 70.6202 56.65 59.4952 57.65C61.3077 58.9 62.8702 61.3 62.8702 65.05C62.8702 70.4 62.8077 74.7 62.8077 76.05C62.8077 77.1 63.7452 78.35 66.2452 77.95C76.1717 75.2699 84.7974 70.1667 90.9079 63.3588C97.0184 56.5509 100.306 48.3812 100.308 40C100.308 17.9 77.9327 0 50.3077 0Z" fill="#D6E1F8"/>
</svg>
