<svg width="81" height="80" viewBox="0 0 81 80" fill="none" xmlns="http://www.w3.org/2000/svg">
<path d="M40.2976 26.661C32.9526 26.661 26.9586 32.655 26.9586 40C26.9586 47.345 32.9526 53.339 40.2976 53.339C47.6426 53.339 53.6366 47.345 53.6366 40C53.6366 32.655 47.6426 26.661 40.2976 26.661ZM80.3046 40C80.3046 34.4763 80.3547 29.0026 80.0445 23.4888C79.7342 17.0845 78.2733 11.4007 73.5901 6.71751C68.8969 2.02434 63.2231 0.573362 56.8188 0.263152C51.295 -0.0470575 45.8213 0.00297645 40.3076 0.00297645C34.7839 0.00297645 29.3102 -0.0470575 23.7965 0.263152C17.3921 0.573362 11.7083 2.03435 7.02513 6.71751C2.33196 11.4107 0.880979 17.0845 0.570769 23.4888C0.26056 29.0126 0.310594 34.4863 0.310594 40C0.310594 45.5137 0.26056 50.9974 0.570769 56.5112C0.880979 62.9155 2.34197 68.5993 7.02513 73.2825C11.7183 77.9757 17.3921 79.4266 23.7965 79.7368C29.3202 80.0471 34.7939 79.997 40.3076 79.997C45.8313 79.997 51.305 80.0471 56.8188 79.7368C63.2231 79.4266 68.9069 77.9657 73.5901 73.2825C78.2833 68.5893 79.7342 62.9155 80.0445 56.5112C80.3647 50.9974 80.3046 45.5237 80.3046 40V40ZM40.2976 60.5239C28.9399 60.5239 19.7737 51.3577 19.7737 40C19.7737 28.6423 28.9399 19.4761 40.2976 19.4761C51.6553 19.4761 60.8215 28.6423 60.8215 40C60.8215 51.3577 51.6553 60.5239 40.2976 60.5239ZM61.662 23.4288C59.0103 23.4288 56.8688 21.2874 56.8688 18.6356C56.8688 15.9838 59.0103 13.8423 61.662 13.8423C64.3138 13.8423 66.4553 15.9838 66.4553 18.6356C66.4561 19.2652 66.3326 19.8889 66.092 20.4708C65.8514 21.0527 65.4984 21.5814 65.0531 22.0267C64.6079 22.4719 64.0792 22.8249 63.4973 23.0656C62.9154 23.3062 62.2917 23.4296 61.662 23.4288V23.4288Z" fill="#D6E1F8"/>
</svg>
