<svg width="101" height="80" viewBox="0 0 101 80" fill="none" xmlns="http://www.w3.org/2000/svg">
<path d="M19.9053 0C9.12894 0 0.309082 7.05572 0.309082 15.677V64.3256C0.309082 72.9467 9.12874 80 19.9053 80H80.716C91.4925 80 100.309 72.9468 100.309 64.3256V15.677C100.309 7.05588 91.4925 0 80.716 0H19.9053ZM24.8341 13.2016C30.0012 13.2016 33.1838 15.9153 33.2821 19.4824C33.2821 22.9707 30.001 25.7606 24.7342 25.7606H24.6372C19.5685 25.7606 16.2924 22.9708 16.2924 19.4824C16.2924 15.9154 19.6676 13.2016 24.834 13.2016H24.8341ZM69.3616 29.8737C79.2988 29.8737 86.7482 35.0697 86.7482 46.2357V67.0808H71.6463V47.6333C71.6463 42.7464 69.4606 39.4123 63.9953 39.4123C59.8231 39.4123 57.3362 41.6595 56.2443 43.8304C55.8454 44.607 55.7474 45.6917 55.7474 46.7782V67.0808H40.6455C40.6455 67.0808 40.8437 34.1373 40.6455 30.7262H55.7505V35.8744C57.7574 33.3973 61.3472 29.8736 69.3616 29.8736V29.8737ZM17.1832 30.7289H32.2851V67.0809H17.1832V30.7289V30.7289Z" fill="#D6E1F8"/>
</svg>
