<svg width="21" height="16" viewBox="0 0 21 16" fill="none" xmlns="http://www.w3.org/2000/svg">
<path d="M2.69094 2.292C4.09394 0.771 6.21694 0 8.99994 0H9.99994V2.819L9.19594 2.98C7.82594 3.254 6.87294 3.793 6.36294 4.584C6.09683 5.01013 5.94591 5.49804 5.92494 6H8.99994C9.26516 6 9.51951 6.10536 9.70705 6.29289C9.89458 6.48043 9.99994 6.73478 9.99994 7V14C9.99994 15.103 9.10294 16 7.99994 16H1.99994C1.73472 16 1.48037 15.8946 1.29283 15.7071C1.1053 15.5196 0.99994 15.2652 0.99994 15V10L1.00294 7.081C0.99394 6.97 0.80394 4.34 2.69094 2.292ZM18.9999 16H12.9999C12.7347 16 12.4804 15.8946 12.2928 15.7071C12.1053 15.5196 11.9999 15.2652 11.9999 15V10L12.0029 7.081C11.9939 6.97 11.8039 4.34 13.6909 2.292C15.0939 0.771 17.2169 0 19.9999 0H20.9999V2.819L20.1959 2.98C18.8259 3.254 17.8729 3.793 17.3629 4.584C17.0968 5.01013 16.9459 5.49804 16.9249 6H19.9999C20.2652 6 20.5195 6.10536 20.707 6.29289C20.8946 6.48043 20.9999 6.73478 20.9999 7V14C20.9999 15.103 20.1029 16 18.9999 16Z" fill="#55B1FC"/>
</svg>
