<svg width="36" height="36" viewBox="0 0 36 36" fill="none" xmlns="http://www.w3.org/2000/svg">
<path d="M19.1499 34.768C21.9219 33.577 23.7239 31.151 24.7939 28.812C26.4669 25.155 32.3759 23.643 33.8439 22.601C35.8819 21.155 34.0099 18.228 30.9799 18.712C27.7149 19.234 26.9269 20.655 24.9589 21.516C23.9549 21.954 23.2459 21.813 23.1119 19.96C23.0139 18.601 24.7679 7.92304 25.3019 3.00004C25.4849 1.31504 24.7829 0.355041 23.4269 0.174041C21.8909 -0.0309594 21.0959 0.805041 20.7709 2.34404C19.9609 6.17604 18.6769 13.688 18.1379 14.112C15.2419 15.929 11.3809 18.306 7.92989 13.689C7.92989 13.689 6.27889 5.02804 6.02189 3.28004C5.57689 0.25404 1.49089 0.80004 1.82589 3.95504C2.13989 6.92704 3.11489 13.94 2.26089 16.431C1.51089 18.62 0.186894 26.133 3.10389 30.708C5.98189 35.222 13.6639 37.125 19.1499 34.768Z" fill="#FFDC5D"/>
<path d="M8.83396 22.614C9.69896 26.77 14.72 26.303 14.403 22.344C14.146 19.124 13.168 13.498 12.85 12.092C12.202 9.21503 7.19096 9.85403 7.60096 13.251C7.86696 15.456 8.16096 19.379 8.83396 22.614V22.614Z" fill="#EF9645"/>
<path d="M9.75803 22.191C10.553 25.64 14.187 24.681 14.002 21.457C13.817 18.232 13.071 13.318 12.843 11.894C12.309 8.56796 8.03703 10.065 8.38403 12.515C8.73103 14.965 9.16503 19.619 9.75803 22.191V22.191Z" fill="#FFDC5D"/>
<path d="M12.7301 23.5201C12.7991 28.4631 18.3111 28.1941 18.7431 24.4941C19.1181 21.2861 18.3241 14.2141 18.2651 12.7721C18.1541 10.0891 13.2501 10.0701 13.0891 13.1171C12.9591 15.5891 12.6931 20.8811 12.7301 23.5201V23.5201Z" fill="#EF9645"/>
<path d="M13.6671 23.6661C13.5261 26.7401 17.6811 27.0881 17.9821 23.8731C18.2841 20.6581 18.2121 13.7841 18.1881 12.3431C18.1471 9.83506 13.9541 9.92406 13.8361 13.0041C13.7421 15.4761 13.7871 21.0291 13.6671 23.6661V23.6661Z" fill="#FFDC5D"/>
</svg>
